<svg width="1200" height="348" xmlns="http://www.w3.org/2000/svg">
 <g>
  <title>background</title>
  <rect x="-1" y="-1" width="1202" height="350" id="canvas_background" fill="none"/>
 </g>

 <g>
  <title>Layer 1</title>
  <g id="svg_1" stroke="null">
   <g id="svg_2" stroke="null">
    <path fill="#2f2f2f" d="m314.94386,66.31811c-1.11795,-1.15968 -3.6844,-2.08874 -3.6844,-2.08874c0.80606,-1.21129 1.07731,-3.90184 1.07731,-3.90184c7.78611,-0.45355 10.145,-1.3914 10.85992,-1.96135c-15.56014,-1.94928 -32.99816,-2.93764 -51.83308,-2.93764c-17.6335,0 -30.47784,0.88404 -32.7928,1.05316c2.44455,1.60554 10.90604,2.49726 10.90604,2.49726l0.94224,4.7112c-1.22447,0.06809 -2.10302,0.44477 -2.67297,0.80277c1.97892,-0.02196 7.3677,-0.07577 14.34774,-0.07577c18.01567,0.0011 41.62548,0.33714 52.84999,1.90095l0.00001,0zm-6.16849,-8.37144l1.89875,0l0,5.56229l-1.89875,0l0,-5.56229zm-3.71405,-0.59741l1.89656,0l0,5.63697l-1.89656,0l0,-5.63697zm-3.83046,-0.3009l1.89656,0l0,5.60182l-1.89656,0l0,-5.60182zm-4.24228,0.03624l1.89986,0l0,5.45028l-1.89986,0l0,-5.45028zm-3.56799,0l1.90205,0l0,5.45028l-1.90205,0l0,-5.45028zm-3.86779,0l1.90095,0l0,5.45028l-1.90095,0l0,-5.45028zm-4.15003,0l1.89875,0l0,5.45028l-1.89875,0l0,-5.45028zm-4.42897,0l1.89985,0l0,5.45028l-1.89985,0l0,-5.45028zm-4.42787,0l1.89656,0l0,5.45028l-1.89656,0l0,-5.45028zm-4.43336,0l1.90095,0l0,5.45028l-1.90095,0l0,-5.45028zm-4.42677,0l1.89985,0l0,5.45028l-1.89985,0l0,-5.45028zm-4.42677,0l1.89875,0l0,5.45028l-1.89875,0l0,-5.45028zm-9.89132,6.42436l-1.90096,0l0,-5.56229l1.90096,0l0,5.56229zm3.71624,-0.52163l-1.89656,0l0,-5.63697l1.89656,0l0,5.63697zm3.83156,-0.33824l-1.89876,0l0,-5.60183l1.89876,0l0,5.60183z" id="svg_3" stroke="null"/>
    <path fill="#2f2f2f" d="m322.92654,56.98796c-1.69669,-1.43203 -6.54956,-2.7191 -6.54956,-2.7191c0.13398,-4.7123 -2.82452,-5.11533 -2.82452,-5.11533l-21.80879,-8.48016l0,-2.01846l3.22865,-4.30926l-3.77005,0l0,-3.09578l-7.26448,0l0,-4.03801l-2.15353,0l-1.61433,-24.90347l-0.94334,24.90347l-1.07731,0l0,4.17199l-8.2122,0l0,3.43621l-2.89371,0l3.70197,3.69758l0,2.02175l-21.26739,6.99652c-3.49991,0.94224 -3.90294,5.38329 -3.90294,5.38329c-2.92116,0.37667 -5.47993,1.53526 -6.77358,2.20405c3.09248,-0.21964 15.65458,-1.03559 32.57317,-1.03559c18.71411,0.0022 36.04891,0.98068 51.55194,2.9003zm-11.5968,-6.54956l2.23809,0l0,2.42259l-2.23809,0l0,-2.42259zm-3.45159,-0.46563l2.2392,0l0,2.42369l-2.2392,0l0,-2.42369zm-3.35824,-0.56226l2.2381,0l0,2.42588l-2.2381,0l0,-2.42588zm-3.54383,-0.37339l2.2392,0l0,2.42699l-2.2392,0l0,-2.42699zm-3.35604,-0.37338l2.2359,0l0,2.42588l-2.2359,0l0,-2.42588zm-3.45488,-0.37228l2.24029,0l0,2.42478l-2.24029,0l0,-2.42478zm-3.54493,-0.28114l2.24139,0l0,2.42808l-2.24139,0l0,-2.42808zm-3.44939,-0.18559l2.23809,0l0,2.42808l-2.23809,0l0,-2.42808zm-3.54383,0l2.23919,0l0,2.42808l-2.23919,0l0,-2.42808zm-3.54493,0l2.24029,0l0,2.42808l-2.24029,0l0,-2.42808zm-3.54274,0l2.2381,0l0,2.42808l-2.2381,0l0,-2.42808zm-3.54493,0l2.237,0l0,2.42808l-2.237,0l0,-2.42808zm-21.9219,4.19835l-2.2359,0l0,-2.42369l2.2359,0l0,2.42369zm3.45158,-0.47002l-2.2359,0l0,-2.42259l2.2359,0l0,2.42259zm3.36154,-0.55678l-2.24139,0l0,-2.42588l2.24139,0l0,2.42588zm3.54273,-0.37338l-2.23809,0l0,-2.42479l2.23809,0l0,2.42479zm3.35714,-0.37009l-2.23919,0l0,-2.42808l2.23919,0l0,2.42808zm3.35824,0l-2.24029,0l0,-2.42808l2.24029,0l0,2.42808zm1.30464,-2.42808l2.2381,0l0,2.42808l-2.2381,0l0,-2.42808z" id="svg_4" stroke="null"/>
    <path fill="#2f2f2f" d="m237.90201,55.61523c0,0 0.34593,-0.20426 0.89941,-0.48979c-0.46672,0.03405 -0.72809,0.05382 -0.74456,0.05491l-0.52933,0.04283l0.10653,1.33429l0.52932,-0.04392c0.01428,-0.0011 0.17791,-0.01318 0.40853,-0.03075c-0.40963,-0.26906 -0.66989,-0.55788 -0.66989,-0.86757l-0.00001,0z" id="svg_5" stroke="null"/>
    <path fill="#2f2f2f" d="m323.19779,58.36728c0.02636,0.00329 0.05381,0.00658 0.07907,0.00988l0.52164,0.06589l0.1779,-1.3288l-0.52823,-0.06589c-0.17351,-0.02087 -0.34922,-0.04063 -0.52163,-0.0593c0.3591,0.2998 0.58313,0.60839 0.58313,0.91368c0,-0.00109 0.03624,0.18779 -0.31188,0.46454z" id="svg_6" stroke="null"/>
    <path fill="#2f2f2f" d="m247.74612,64.49293c-0.52713,0.00659 -0.82254,0.01099 -0.83682,0.01099l-0.52822,0.00878l0.05491,1.33319l0.52602,-0.00439c0.08786,-0.0011 0.25259,-0.00439 0.39535,-0.00659c-0.19658,-0.21414 -0.34703,-0.43268 -0.43378,-0.6633c0,0 0.26356,-0.32836 0.82254,-0.67868z" id="svg_7" stroke="null"/>
    <path fill="#2f2f2f" d="m314.88455,67.65789c0.14387,0.01977 0.31189,0.03954 0.45026,0.05821l0.52383,0.07907l0.19877,-1.32221l-0.52603,-0.07797c-0.1812,-0.02636 -0.39754,-0.05162 -0.58642,-0.07798c0.22952,0.24051 0.4206,0.4854 0.48869,0.73908c-0.0011,0.0011 -0.1241,0.24489 -0.54909,0.6018l-0.00001,0z" id="svg_8" stroke="null"/>
    <path fill="#2f2f2f" d="m1081.5417,319.32161l-3.63938,0.09664c-8.31982,-0.02525 -17.80591,-11.88781 -17.80591,-11.88781l-8.33081,8.32421l-11.89002,0l0,-15.458l-46.37951,0c0,0 -2.20514,3.11993 -4.1632,7.10853l0,-35.06055l-16.06091,16.05871l0,20.21533l-22.2272,0l0,-21.9856l-10.3899,0l0,-26.97024l1.48255,0l0,-9.56736l-7.25569,0l0,-2.00418l0.97519,0l0,-1.96355l-12.17445,0l0,-0.97629l-2.37646,0l0,0.83792l-2.80036,0l0,-3.77555l-2.65651,0l0,-1.11905l-13.29239,0l0,1.53526l-9.37188,0l0,2.80036l-6.57701,0l0,1.40018l-5.45906,0l0,4.33562l-6.71209,0l0,3.91722l1.25742,0l0,2.94313l-1.81749,0l0,2.93653l1.67692,0c0,0 -0.48869,8.77997 0,9.27195c0.4876,0.4854 -34.27864,0 -34.27864,0l1.53635,2.37647l0,6.57371l-2.88931,0l0,-15.71827l-24.15671,0l0,17.11626l-9.75075,0l0,-9.37188l-18.04642,0l0,-7.55769l-2.79817,0l0,-0.83572l-4.05668,0l0,1.40018l-8.3945,0l0,7.13379l-14.55091,0l0,-20.56674l1.95806,-4.19835l-6.01475,0l0,-4.05339l1.53746,-3.22317l-14.12811,0l0,-7.27325l-13.29459,0l0,7.13598l-6.71648,0l0,-3.63827l-2.2359,0l0,3.63827l-2.93763,0l0,1.11685l-5.17793,0l1.25632,2.38086l0,4.75952l-1.12014,0.41402l1.12014,1.82188l0,20.98625l-2.51813,0l0,-35.95666l-3.35385,0l0,-1.82079l-2.37976,0l0,-2.51593l-29.66189,0l0,-27.56107l-37.91911,0.55239l0,24.34559l-3.21658,0l-4.19615,0.14496l0,6.92403l-11.40462,0l-0.906,-0.90819l-3.78213,0l0,-4.62005l-6.43425,0l0,1.81968l-1.67692,0l0,-1.39798l-5.59414,0l0,2.93654l-9.65741,0l0,20.14724l-3.91722,0l0,1.82078l-2.79816,0l0,5.59304l-1.53856,0l0,6.1608l-2.09972,0l0,2.37208l0.83791,0l0,2.66199l-10.20979,0l0,-24.7651l-2.93764,0l0,-2.6554l-10.00334,0l0,-1.45289l-2.49067,0l0,-1.14211l1.24753,0l0,-1.31563l-1.24753,0l0,-1.17176l1.24753,0l0,-1.96245l-1.24753,0l0,-1.28157l1.27938,0l0,-1.35187l-1.27938,0l0,-1.13771l1.43971,0l0,-1.91853l-2.93983,0l0,-6.01693l-8.81291,0l-2.93983,-5.03736l-9.78919,0l0,-1.81859l-5.03846,0l0,-2.09973l-4.05888,0l0,-12.17224l-8.53397,-4.33782l-18.18918,0l-5.738,3.63608l0,-30.77544l-1.25742,-0.98178l0,-8.3923l-0.97958,-0.84121l-7.83443,0l0,-6.29588l-1.67912,-1.67692l-9.37518,0l0,8.81401l-6.71757,0l0,14.41034l-5.45248,0l0,1.25961l-2.38195,0l0,7.13599l-8.95238,0l0,-1.39799l-4.75732,0l0,-20.42728l-16.92957,0l0,-34.41921l-7.13599,0l0,-1.40128l-1.81969,-1.81749l-7.83552,-8.8162l0,-4.19725l-4.33782,0l0,4.19725l-8.81181,9.09624l0,2.79816l-7.13599,0l0,27.84001l-1.11794,0.56117l0,73.59465l-6.57701,0l0,-1.67912l-4.8957,0l0,-76.39282l-2.79817,-1.39908l-35.39879,0l0,43.79549l-14.83094,0l-4.33782,-3.78214l-5.03736,0.56446l0,1.95367l-4.47728,0l0,-31.19825l-14.40705,0l0,-32.58525c0,-8.07822 7.53682,-60.16718 7.53682,-60.16718c9.97369,-0.29541 13.49116,-2.18208 14.66073,-3.16715c-11.70003,-1.65277 -38.02784,-1.90315 -52.81156,-1.90315c-7.46215,0 -13.02334,0.0593 -14.71564,0.08016c2.76632,3.0222 15.44812,4.31806 15.44812,4.31806c-0.40522,0.80826 2.15574,14.67061 2.15574,14.67061c2.68944,13.32423 7.26557,54.51154 7.26557,54.51154l0,31.22899c-0.50736,14.62998 -5.738,53.02132 -6.39581,57.79621l-3.37032,0l0,11.75164l-14.96932,0l0,13.84588l-7.69825,0l0,4.34331l-2.6587,0l0,-1.81969l-1.95586,0l0,-53.16737l0.97957,0l0,-1.12014l-4.89789,0l0,-7.13599l-11.8933,0l0,-2.09643l-8.11008,0l0,2.09643l-15.66995,0l0,7.41822l-2.51813,0l0,56.24228l-17.76858,0l-0.02636,28.59885l-14.28954,0l0,-10.70508l-26.16747,0l0,22.02074l-8.32422,-2.99364l-8.32532,8.32422l0,-22.60058l-13.08154,0l0,24.98143l-15.4602,0l0,8.32642l-66.2588,15.11647l-27.36339,19.98361l88.35531,0.78301l1119.6446,0l-122.45824,-31.23339l0,-0.00001zm-798.60435,-207.96487l0.03843,-1.50341l1.2113,0l0,3.73052l-0.87196,0c-0.16363,-0.83352 -0.28992,-1.6253 -0.37777,-2.22711zm108.95171,57.00881l0,7.14038l-1.96465,0l0,-7.14038l1.96465,0zm-1.96465,-1.53086l0,-7.14587l1.96465,0l0,7.14587l-1.96465,0zm0.01537,69.66865l2.6576,0l0,1.25961l-2.6576,0l0,-1.25961zm0,-1.60774l0,-1.25852l2.6576,0l0,1.25852l-2.6576,0zm0,-2.86406l0,-1.25742l2.6576,0l0,1.25742l-2.6576,0zm0,-8.58339l0,-1.264l2.6576,0l0,1.264l-2.6576,0zm0,-2.86625l0,-1.25852l2.6576,0l0,1.25852l-2.6576,0zm0,-2.86406l0,-1.25632l2.6576,0l0,1.25632l-2.6576,0zm0,-2.85966l0,-1.25852l2.6576,0l0,1.25852l-2.6576,0zm0,-2.86406l0,-1.25522l2.6576,0l0,1.25522l-2.6576,0zm0,-11.44855l0,-1.26181l2.6576,0l0,1.26181l-2.6576,0zm0,-5.72811l0,-1.26072l2.6576,0l0,1.26072l-2.6576,0zm0,-2.85967l0,-1.26291l2.6576,0l0,1.26291l-2.6576,0zm0,-2.86625l0,-1.25962l2.6576,0l0,1.25962l-2.6576,0zm0,-8.59218l0,-1.25412l2.6576,0l0,1.25412l-2.6576,0zm0,-2.85966l0,-1.25413l2.6576,0l0,1.25413l-2.6576,0zm2.08875,-34.45326l-4.62225,0l0,-5.88076l4.62225,0l0,5.88076zm-3.20669,36.0588l0,1.25412l-2.6576,0l0,-1.25412l2.6576,0zm-2.6587,-1.60554l0,-1.25413l2.6576,0l0,1.25413l-2.6576,0zm2.6587,4.4663l0,1.25632l-2.6576,0l0,-1.25632l2.6576,0zm0,2.86296l0,1.26181l-2.6576,0l0,-1.26181l2.6576,0zm0,20.03743l0,1.25961l-2.6576,0l0,-1.25961l2.6576,0zm0,2.86625l0,1.25632l-2.6576,0l0,-1.25632l2.6576,0zm0,2.86625l0,1.25523l-2.6576,0l0,-1.25523l2.6576,0zm0,2.85967l0,1.25852l-2.6576,0l0,-1.25852l2.6576,0zm0,8.58668l0,1.26401l-2.6576,0l0,-1.26401l2.6576,0zm0,2.86516l0,1.25961l-2.6576,0l0,-1.25961l2.6576,0zm0,2.86186l0,1.25742l-2.6576,0l0,-1.25742l2.6576,0zm0,2.86076l0,1.25742l-2.6576,0l0,-1.25742l2.6576,0zm0,5.73032l0,1.25961l-2.6576,0l0,-1.25961l2.6576,0zm0,2.85966l0,1.25852l-2.6576,0l0,-1.25852l2.6576,0zm15.73474,-91.94307l0,1.25961l-2.6576,0l0,-1.25961l2.6576,0zm-2.6576,-1.61213l0,-1.25961l2.6576,0l0,1.25961l-2.6576,0zm2.6576,4.48058l0,1.25522l-2.6576,0l0,-1.25522l2.6576,0zm0,2.86735l0,1.25852l-2.6576,0l0,-1.25852l2.6576,0zm0,2.86955l0,1.25632l-2.6576,0l0,-1.25632l2.6576,0zm0,2.86516l0,1.25851l-2.6576,0l0,-1.25851l2.6576,0zm0,2.87065l0,1.25741l-2.6576,0l0,-1.25741l2.6576,0zm0,2.86625l0,1.25852l-2.6576,0l0,-1.25852l2.6576,0zm0,2.86845l0,1.25961l-2.6576,0l0,-1.25961l2.6576,0zm0,2.87065l0,1.26071l-2.6576,0l0,-1.26071l2.6576,0zm0,2.86515l0,1.25962l-2.6576,0l0,-1.25962l2.6576,0zm0,2.86626l0,1.26181l-2.6576,0l0,-1.26181l2.6576,0zm0,2.87064l0,1.26182l-2.6576,0l0,-1.26182l2.6576,0zm0,2.86846l0,1.25741l-2.6576,0l0,-1.25741l2.6576,0zm0,2.86954l0,1.25962l-2.6576,0l0,-1.25962l2.6576,0zm0,2.86626l0,1.25961l-2.6576,0l0,-1.25961l2.6576,0zm0,2.86845l0,1.25742l-2.6576,0l0,-1.25742l2.6576,0zm0,2.86955l0,1.25742l-2.6576,0l0,-1.25742l2.6576,0zm0,2.86625l0,1.26181l-2.6576,0l0,-1.26181l2.6576,0zm0,2.86955l0,1.25742l-2.6576,0l0,-1.25742l2.6576,0zm0,2.86845l0,1.26181l-2.6576,0l0,-1.26181l2.6576,0zm0,2.86626l0,1.26181l-2.6576,0l0,-1.26181l2.6576,0zm0,2.86955l0,1.25961l-2.6576,0l0,-1.25961l2.6576,0zm0,2.86954l0,1.25523l-2.6576,0l0,-1.25523l2.6576,0zm0,2.86736l0,1.25851l-2.6576,0l0,-1.25851l2.6576,0zm0,2.86735l0,1.25632l-2.6576,0l0,-1.25632l2.6576,0zm0,2.86625l0,1.26401l-2.6576,0l0,-1.26401l2.6576,0zm0,2.87175l0,1.25742l-2.6576,0l0,-1.25742l2.6576,0zm0,2.86406l0,1.26071l-2.6576,0l0,-1.26071l2.6576,0zm0,2.87174l0,1.25522l-2.6576,0l0,-1.25522l2.6576,0zm0,2.86845l0,1.25742l-2.6576,0l0,-1.25742l2.6576,0zm0,2.86406l0,1.26181l-2.6576,0l0,-1.26181l2.6576,0zm0,2.87284l0,1.26072l-2.6576,0l0,-1.26072l2.6576,0zm0,2.86516l0,1.26181l-2.6576,0l0,-1.26181l2.6576,0zm0,2.86955l0,1.25961l-2.6576,0l0,-1.25961l2.6576,0zm8.68662,53.6352l0,-1.68132l6.60996,0l0,1.68132l-6.60996,0zm6.60996,2.14365l0,1.70108l-6.60996,0l0,-1.70108l6.60996,0zm-6.60996,-5.984l0,-1.69998l6.60996,0l0,1.69998l-6.60996,0zm0,-3.48672l0,-1.69889l6.60996,0l0,1.69889l-6.60996,0zm-3.30113,-8.68003l0,-1.06084l0.52822,-0.09664l27.2415,0l0,1.05974l-0.52823,0.09774l-27.24149,0zm27.2404,-2.47201l-27.2404,0l0,-1.06194l0.52822,-0.09444l27.2415,0l0,1.05755l-0.52933,0.09883l0.00001,0zm0,-2.4731l-27.2404,0l0,-1.05645l0.52822,-0.09994l27.2415,0l0,1.05755l-0.52933,0.09884l0.00001,0zm0,-2.47311l-27.2404,0l0,-1.06084l0.52822,-0.08895l27.2415,0l0,1.05974l-0.52933,0.09005l0.00001,0zm-30.74031,-129.64914l0,-5.88405l5.74349,0l0,5.88405l-5.74349,0zm376.7609,143.40277l0,2.13487l-4.7705,0l0,-2.13487l4.7705,0zm-4.7705,-1.69449l0,-2.13706l4.7705,0l0,2.13706l-4.7705,0zm4.7705,5.52385l0,2.13926l-4.7705,0l0,-2.13926l4.7705,0zm0,3.83266l0,2.13376l-4.7705,0l0,-2.13376l4.7705,0zm0,3.83045l0,2.13377l-4.7705,0l0,-2.13377l4.7705,0zm0,3.82936l0,2.13157l-4.7705,0l0,-2.13157l4.7705,0zm0,3.82827l0,2.13925l-4.7705,0l0,-2.13925l4.7705,0zm0,3.83265l0,2.13377l-4.7705,0l0,-2.13377l4.7705,0zm0,3.82716l0,2.13597l-4.7705,0l0,-2.13597l4.7705,0zm0,3.83156l0,2.13926l-4.7705,0l0,-2.13926l4.7705,0zm149.51964,-61.73319l4.47619,0l0,1.96245l-4.47619,0l0,-1.96245zm0,4.61566l4.47619,0l0,1.96025l-4.47619,0l0,-1.96025zm0,4.61895l4.47619,0l0,1.96135l-4.47619,0l0,-1.96135zm0,9.23461l4.47619,0l0,1.95696l-4.47619,0l0,-1.95696zm0,4.61346l4.47619,0l0,1.96135l-4.47619,0l0,-1.96135zm0,4.62005l4.47619,0l0,1.96355l-4.47619,0l0,-1.96355zm-6.99432,-32.32168l4.47838,0l0,1.95915l-4.47838,0l0,-1.95915zm0,4.61895l4.47838,0l0,1.96245l-4.47838,0l0,-1.96245zm0,9.23461l4.47838,0l0,1.96135l-4.47838,0l0,-1.96135zm0,4.61346l4.47838,0l0,1.96245l-4.47838,0l0,-1.96245zm0,4.62115l4.47838,0l0,1.95696l-4.47838,0l0,-1.95696zm0,4.61346l4.47838,0l0,1.96135l-4.47838,0l0,-1.96135zm0,9.23681l4.47838,0l0,1.96025l-4.47838,0l0,-1.96025zm0,4.61895l4.47838,0l0,1.95696l-4.47838,0l0,-1.95696zm-3.36044,11.89331l1.68132,0l0,3.63388l-1.68132,0l0,-3.63388zm-4.19835,0l1.68132,0l0,3.63388l-1.68132,0l0,-3.63388zm0,5.17353l1.68132,0l0,3.63828l-1.68132,0l0,-3.63828zm-4.19285,-5.17353l1.67912,0l0,3.63388l-1.67912,0l0,-3.63388zm0,5.17353l1.67912,0l0,3.63828l-1.67912,0l0,-3.63828zm0,5.17244l1.67912,0l0,3.63937l-1.67912,0l0,-3.63937zm-4.19945,-10.34597l1.68022,0l0,3.63388l-1.68022,0l0,-3.63388zm0,5.17353l1.68022,0l0,3.63828l-1.68022,0l0,-3.63828zm0,5.17244l1.68022,0l0,3.63937l-1.68022,0l0,-3.63937zm0,5.18122l1.68022,0l0,3.63827l-1.68022,0l0,-3.63827zm0,5.17792l1.68022,0l0,3.63828l-1.68022,0l0,-3.63828zm0,5.17354l1.68022,0l0,3.64047l-1.68022,0l0,-3.64047zm-24.54436,-81.66519l1.63189,0l0,2.25676l-1.63189,0l0,-2.25676zm0,7.09426l1.63189,0l0,2.88382l-1.63189,0l0,-2.88382zm-2.82453,-7.09426l1.6319,0l0,2.25676l-1.6319,0l0,-2.25676zm0,3.1386l1.6319,0l0,2.88273l-1.6319,0l0,-2.88273zm0,3.95566l1.6319,0l0,2.88382l-1.6319,0l0,-2.88382zm-3.26709,0l1.633,0l0,2.88382l-1.633,0l0,-2.88382zm0,3.70306l1.633,0l0,2.88712l-1.633,0l0,-2.88712zm-3.2627,-3.70306l1.6319,0l0,2.88382l-1.6319,0l0,-2.88382zm0,3.70306l1.6319,0l0,2.88712l-1.6319,0l0,-2.88712zm0,3.70307l1.6319,0l0,2.89042l-1.6319,0l0,-2.89042zm0,3.70527l1.6319,0l0,2.88822l-1.6319,0l0,-2.88822zm0,3.70636l1.6319,0l0,2.88712l-1.6319,0l0,-2.88712zm0,3.70307l1.6319,0l0,2.88712l-1.6319,0l0,-2.88712zm0,3.70636l1.6319,0l0,2.88712l-1.6319,0l0,-2.88712zm0,3.70307l1.6319,0l0,2.88493l-1.6319,0l0,-2.88493zm0,3.70527l1.6319,0l0,2.88272l-1.6319,0l0,-2.88272zm0,3.69867l1.6319,0l0,2.89371l-1.6319,0l0,-2.89371zm0,3.70856l1.6319,0l0,2.88493l-1.6319,0l0,-2.88493zm0,3.70527l1.6319,0l0,2.88712l-1.6319,0l0,-2.88712zm0,3.70307l1.6319,0l0,2.88712l-1.6319,0l0,-2.88712zm0,3.70636l1.6319,0l0,2.88492l-1.6319,0l0,-2.88492zm0,3.70307l1.6319,0l0,2.89041l-1.6319,0l0,-2.89041zm0,3.70307l1.6319,0l0,2.88492l-1.6319,0l0,-2.88492zm0,3.70636l1.6319,0l0,2.88712l-1.6319,0l0,-2.88712zm0,3.70087l1.6319,0l0,2.89262l-1.6319,0l0,-2.89262zm-78.60894,-28.31332l1.75599,0l0,1.75929l-1.75599,0l0,-1.75929zm0,4.01605l1.75599,0l0,1.76149l-1.75599,0l0,-1.76149zm0,4.02045l1.75599,0l0,1.76368l-1.75599,0l0,-1.76368zm0,4.01824l1.75599,0l0,1.76149l-1.75599,0l0,-1.76149zm0,4.01935l1.75599,0l0,1.75819l-1.75599,0l0,-1.75819zm0,4.01934l1.75599,0l0,1.756l-1.75599,0l0,-1.756zm0,4.01495l1.75599,0l0,1.7571l-1.75599,0l0,-1.7571zm-14.06661,-33.3375l-4.7705,0l0,-2.13706l4.7705,0l0,2.13706zm-4.77599,-5.96422l4.71339,0l0,2.13047l-4.71339,0l0,-2.13047zm-13.73936,0l4.52012,0l0,2.13047l-4.52012,0l0,-2.13047zm-0.19547,3.82716l4.7705,0l0,2.13706l-4.7705,0l0,-2.13706zm0,3.82936l4.7705,0l0,2.13706l-4.7705,0l0,-2.13706zm0,3.83156l4.7705,0l0,2.13486l-4.7705,0l0,-2.13486zm0,3.82936l4.7705,0l0,2.13925l-4.7705,0l0,-2.13925zm0,3.83265l4.7705,0l0,2.13377l-4.7705,0l0,-2.13377zm0,3.83046l4.7705,0l0,2.13376l-4.7705,0l0,-2.13376zm0,3.82936l4.7705,0l0,2.13157l-4.7705,0l0,-2.13157zm0,3.82826l4.7705,0l0,2.13926l-4.7705,0l0,-2.13926zm0,3.83265l4.7705,0l0,2.13377l-4.7705,0l0,-2.13377zm0,3.82717l4.7705,0l0,2.13596l-4.7705,0l0,-2.13596zm0,3.83155l4.7705,0l0,2.13926l-4.7705,0l0,-2.13926zm-12.46766,-65.04091l2.86406,0l0,2.86296l-2.86406,0l0,-2.86296zm0,7.70704l2.86406,0l0,2.86735l-2.86406,0l0,-2.86735zm0,7.71253l2.86406,0l0,2.86516l-2.86406,0l0,-2.86516zm0,7.71033l2.86406,0l0,2.86516l-2.86406,0l0,-2.86516zm-3.85572,-23.1299l2.85967,0l0,2.86296l-2.85967,0l0,-2.86296zm0,3.85462l2.85967,0l0,2.86296l-2.85967,0l0,-2.86296zm0,11.56495l2.85967,0l0,2.86516l-2.85967,0l0,-2.86516zm0,3.85242l2.85967,0l0,2.86626l-2.85967,0l0,-2.86626zm-3.85352,-15.41737l2.86187,0l0,2.86296l-2.86187,0l0,-2.86296zm0,7.71253l2.86187,0l0,2.85966l-2.86187,0l0,-2.85966zm0,3.85242l2.86187,0l0,2.86516l-2.86187,0l0,-2.86516zm-3.85791,-15.41957l2.86736,0l0,2.86296l-2.86736,0l0,-2.86296zm0,7.70704l2.86736,0l0,2.86735l-2.86736,0l0,-2.86735zm-3.85681,-7.70704l2.86406,0l0,2.86296l-2.86406,0l0,-2.86296zm0,3.85462l2.86406,0l0,2.86296l-2.86406,0l0,-2.86296zm-3.85132,-3.85462l2.86405,0l0,2.86296l-2.86405,0l0,-2.86296zm-3.85572,3.85462l2.86186,0l0,2.86296l-2.86186,0l0,-2.86296zm-7.71143,-3.85462l2.86076,0l0,2.86296l-2.86076,0l0,-2.86296zm-19.6915,-8.93151l1.633,0l0,1.45289l-1.633,0l0,-1.45289zm0,3.11774l1.633,0l0,1.45289l-1.633,0l0,-1.45289zm0,3.11554l1.633,0l0,1.45729l-1.633,0l0,-1.45729zm0,3.57568l1.633,0l0,1.45509l-1.633,0l0,-1.45509zm0,3.11334l1.633,0l0,1.45949l-1.633,0l0,-1.45949zm0,3.11994l1.633,0l0,1.45179l-1.633,0l0,-1.45179zm0,3.57348l1.633,0l0,1.45509l-1.633,0l0,-1.45509zm0,3.11884l1.633,0l0,1.45289l-1.633,0l0,-1.45289zm0,3.11883l1.633,0l0,1.4518l-1.633,0l0,-1.4518zm0,3.57129l1.633,0l0,1.45399l-1.633,0l0,-1.45399zm0,3.11884l1.633,0l0,1.45289l-1.633,0l0,-1.45289zm0,3.11554l1.633,0l0,1.45509l-1.633,0l0,-1.45509zm0,3.57787l1.633,0l0,1.4518l-1.633,0l0,-1.4518zm0,3.11555l1.633,0l0,1.45509l-1.633,0l0,-1.45509zm0,3.11334l1.633,0l0,1.45729l-1.633,0l0,-1.45729zm0,3.57568l1.633,0l0,1.45619l-1.633,0l0,-1.45619zm0,3.11774l1.633,0l0,1.45289l-1.633,0l0,-1.45289zm0,3.11883l1.633,0l0,1.4529l-1.633,0l0,-1.4529zm0,3.57239l1.633,0l0,1.4518l-1.633,0l0,-1.4518zm0,3.11884l1.633,0l0,1.45289l-1.633,0l0,-1.45289zm0,3.11773l1.633,0l0,1.4529l-1.633,0l0,-1.4529zm-4.37186,-65.08703l1.63299,0l0,1.45289l-1.63299,0l0,-1.45289zm0,3.11774l1.63299,0l0,1.45289l-1.63299,0l0,-1.45289zm0,3.11554l1.63299,0l0,1.45729l-1.63299,0l0,-1.45729zm0,3.57568l1.63299,0l0,1.45509l-1.63299,0l0,-1.45509zm0,3.11334l1.63299,0l0,1.45949l-1.63299,0l0,-1.45949zm0,3.11994l1.63299,0l0,1.45179l-1.63299,0l0,-1.45179zm0,3.57348l1.63299,0l0,1.45509l-1.63299,0l0,-1.45509zm0,3.11884l1.63299,0l0,1.45289l-1.63299,0l0,-1.45289zm0,3.11883l1.63299,0l0,1.4518l-1.63299,0l0,-1.4518zm0,3.57129l1.63299,0l0,1.45399l-1.63299,0l0,-1.45399zm0,3.11884l1.63299,0l0,1.45289l-1.63299,0l0,-1.45289zm0,3.11554l1.63299,0l0,1.45509l-1.63299,0l0,-1.45509zm0,3.57787l1.63299,0l0,1.4518l-1.63299,0l0,-1.4518zm0,3.11555l1.63299,0l0,1.45509l-1.63299,0l0,-1.45509zm0,3.11334l1.63299,0l0,1.45729l-1.63299,0l0,-1.45729zm0,3.57568l1.63299,0l0,1.45619l-1.63299,0l0,-1.45619zm0,3.11774l1.63299,0l0,1.45289l-1.63299,0l0,-1.45289zm0,3.11883l1.63299,0l0,1.4529l-1.63299,0l0,-1.4529zm0,3.57239l1.63299,0l0,1.4518l-1.63299,0l0,-1.4518zm0,3.11884l1.63299,0l0,1.45289l-1.63299,0l0,-1.45289zm0,3.11773l1.63299,0l0,1.4529l-1.63299,0l0,-1.4529zm-4.36418,-65.08703l1.62641,0l0,1.45289l-1.62641,0l0,-1.45289zm0,3.11774l1.62641,0l0,1.45289l-1.62641,0l0,-1.45289zm0,3.11554l1.62641,0l0,1.45729l-1.62641,0l0,-1.45729zm0,3.57568l1.62641,0l0,1.45509l-1.62641,0l0,-1.45509zm0,3.11334l1.62641,0l0,1.45949l-1.62641,0l0,-1.45949zm0,3.11994l1.62641,0l0,1.45179l-1.62641,0l0,-1.45179zm0,3.57348l1.62641,0l0,1.45509l-1.62641,0l0,-1.45509zm0,3.11884l1.62641,0l0,1.45289l-1.62641,0l0,-1.45289zm0,3.11883l1.62641,0l0,1.4518l-1.62641,0l0,-1.4518zm0,3.57129l1.62641,0l0,1.45399l-1.62641,0l0,-1.45399zm0,3.11884l1.62641,0l0,1.45289l-1.62641,0l0,-1.45289zm0,3.11554l1.62641,0l0,1.45509l-1.62641,0l0,-1.45509zm0,3.57787l1.62641,0l0,1.4518l-1.62641,0l0,-1.4518zm0,3.11555l1.62641,0l0,1.45509l-1.62641,0l0,-1.45509zm0,3.11334l1.62641,0l0,1.45729l-1.62641,0l0,-1.45729zm0,3.57568l1.62641,0l0,1.45619l-1.62641,0l0,-1.45619zm0,3.11774l1.62641,0l0,1.45289l-1.62641,0l0,-1.45289zm0,3.11883l1.62641,0l0,1.4529l-1.62641,0l0,-1.4529zm0,3.57239l1.62641,0l0,1.4518l-1.62641,0l0,-1.4518zm0,3.11884l1.62641,0l0,1.45289l-1.62641,0l0,-1.45289zm0,3.11773l1.62641,0l0,1.4529l-1.62641,0l0,-1.4529zm-4.37296,-65.08703l1.62971,0l0,1.45289l-1.62971,0l0,-1.45289zm0,3.11774l1.62971,0l0,1.45289l-1.62971,0l0,-1.45289zm0,3.11554l1.62971,0l0,1.45729l-1.62971,0l0,-1.45729zm0,3.57568l1.62971,0l0,1.45509l-1.62971,0l0,-1.45509zm0,3.11334l1.62971,0l0,1.45949l-1.62971,0l0,-1.45949zm0,3.11994l1.62971,0l0,1.45179l-1.62971,0l0,-1.45179zm0,3.57348l1.62971,0l0,1.45509l-1.62971,0l0,-1.45509zm0,3.11884l1.62971,0l0,1.45289l-1.62971,0l0,-1.45289zm0,3.11883l1.62971,0l0,1.4518l-1.62971,0l0,-1.4518zm0,3.57129l1.62971,0l0,1.45399l-1.62971,0l0,-1.45399zm0,3.11884l1.62971,0l0,1.45289l-1.62971,0l0,-1.45289zm0,3.11554l1.62971,0l0,1.45509l-1.62971,0l0,-1.45509zm0,3.57787l1.62971,0l0,1.4518l-1.62971,0l0,-1.4518zm0,3.11555l1.62971,0l0,1.45509l-1.62971,0l0,-1.45509zm0,3.11334l1.62971,0l0,1.45729l-1.62971,0l0,-1.45729zm0,3.57568l1.62971,0l0,1.45619l-1.62971,0l0,-1.45619zm0,3.11774l1.62971,0l0,1.45289l-1.62971,0l0,-1.45289zm0,3.11883l1.62971,0l0,1.4529l-1.62971,0l0,-1.4529zm0,3.57239l1.62971,0l0,1.4518l-1.62971,0l0,-1.4518zm0,3.11884l1.62971,0l0,1.45289l-1.62971,0l0,-1.45289zm0,3.11773l1.62971,0l0,1.4529l-1.62971,0l0,-1.4529zm-4.36966,-65.08703l1.6308,0l0,1.45289l-1.6308,0l0,-1.45289zm0,3.11774l1.6308,0l0,1.45289l-1.6308,0l0,-1.45289zm0,3.11554l1.6308,0l0,1.45729l-1.6308,0l0,-1.45729zm0,3.57568l1.6308,0l0,1.45509l-1.6308,0l0,-1.45509zm0,3.11334l1.6308,0l0,1.45949l-1.6308,0l0,-1.45949zm0,3.11994l1.6308,0l0,1.45179l-1.6308,0l0,-1.45179zm0,3.57348l1.6308,0l0,1.45509l-1.6308,0l0,-1.45509zm0,3.11884l1.6308,0l0,1.45289l-1.6308,0l0,-1.45289zm0,3.11883l1.6308,0l0,1.4518l-1.6308,0l0,-1.4518zm0,3.57129l1.6308,0l0,1.45399l-1.6308,0l0,-1.45399zm0,3.11884l1.6308,0l0,1.45289l-1.6308,0l0,-1.45289zm0,3.11554l1.6308,0l0,1.45509l-1.6308,0l0,-1.45509zm0,3.57787l1.6308,0l0,1.4518l-1.6308,0l0,-1.4518zm0,3.11555l1.6308,0l0,1.45509l-1.6308,0l0,-1.45509zm0,3.11334l1.6308,0l0,1.45729l-1.6308,0l0,-1.45729zm0,3.57568l1.6308,0l0,1.45619l-1.6308,0l0,-1.45619zm0,3.11774l1.6308,0l0,1.45289l-1.6308,0l0,-1.45289zm0,3.11883l1.6308,0l0,1.4529l-1.6308,0l0,-1.4529zm0,3.57239l1.6308,0l0,1.4518l-1.6308,0l0,-1.4518zm0,3.11884l1.6308,0l0,1.45289l-1.6308,0l0,-1.45289zm0,3.11773l1.6308,0l0,1.4529l-1.6308,0l0,-1.4529zm-4.37406,-65.08703l1.633,0l0,1.45289l-1.633,0l0,-1.45289zm0,3.11774l1.633,0l0,1.45289l-1.633,0l0,-1.45289zm0,3.11554l1.633,0l0,1.45729l-1.633,0l0,-1.45729zm0,3.57568l1.633,0l0,1.45509l-1.633,0l0,-1.45509zm0,3.11334l1.633,0l0,1.45949l-1.633,0l0,-1.45949zm0,3.11994l1.633,0l0,1.45179l-1.633,0l0,-1.45179zm0,3.57348l1.633,0l0,1.45509l-1.633,0l0,-1.45509zm0,3.11884l1.633,0l0,1.45289l-1.633,0l0,-1.45289zm0,3.11883l1.633,0l0,1.4518l-1.633,0l0,-1.4518zm0,3.57129l1.633,0l0,1.45399l-1.633,0l0,-1.45399zm0,3.11884l1.633,0l0,1.45289l-1.633,0l0,-1.45289zm0,3.11554l1.633,0l0,1.45509l-1.633,0l0,-1.45509zm0,3.57787l1.633,0l0,1.4518l-1.633,0l0,-1.4518zm0,3.11555l1.633,0l0,1.45509l-1.633,0l0,-1.45509zm0,3.11334l1.633,0l0,1.45729l-1.633,0l0,-1.45729zm0,3.57568l1.633,0l0,1.45619l-1.633,0l0,-1.45619zm0,3.11774l1.633,0l0,1.45289l-1.633,0l0,-1.45289zm0,3.11883l1.633,0l0,1.4529l-1.633,0l0,-1.4529zm0,3.57239l1.633,0l0,1.4518l-1.633,0l0,-1.4518zm0,3.11884l1.633,0l0,1.45289l-1.633,0l0,-1.45289zm0,3.11773l1.633,0l0,1.4529l-1.633,0l0,-1.4529zm-4.36637,-65.08703l1.6319,0l0,1.45289l-1.6319,0l0,-1.45289zm0,3.11774l1.6319,0l0,1.45289l-1.6319,0l0,-1.45289zm0,3.11554l1.6319,0l0,1.45729l-1.6319,0l0,-1.45729zm0,3.57568l1.6319,0l0,1.45509l-1.6319,0l0,-1.45509zm0,3.11334l1.6319,0l0,1.45949l-1.6319,0l0,-1.45949zm0,3.11994l1.6319,0l0,1.45179l-1.6319,0l0,-1.45179zm0,3.57348l1.6319,0l0,1.45509l-1.6319,0l0,-1.45509zm0,3.11884l1.6319,0l0,1.45289l-1.6319,0l0,-1.45289zm0,3.11883l1.6319,0l0,1.4518l-1.6319,0l0,-1.4518zm0,3.57129l1.6319,0l0,1.45399l-1.6319,0l0,-1.45399zm0,3.11884l1.6319,0l0,1.45289l-1.6319,0l0,-1.45289zm0,3.11554l1.6319,0l0,1.45509l-1.6319,0l0,-1.45509zm0,3.57787l1.6319,0l0,1.4518l-1.6319,0l0,-1.4518zm0,3.11555l1.6319,0l0,1.45509l-1.6319,0l0,-1.45509zm0,3.11334l1.6319,0l0,1.45729l-1.6319,0l0,-1.45729zm0,3.57568l1.6319,0l0,1.45619l-1.6319,0l0,-1.45619zm0,3.11774l1.6319,0l0,1.45289l-1.6319,0l0,-1.45289zm0,3.11883l1.6319,0l0,1.4529l-1.6319,0l0,-1.4529zm0,3.57239l1.6319,0l0,1.4518l-1.6319,0l0,-1.4518zm0,3.11884l1.6319,0l0,1.45289l-1.6319,0l0,-1.45289zm0,3.11773l1.6319,0l0,1.4529l-1.6319,0l0,-1.4529zm-30.48552,-97.4801l3.63608,0l0,2.2381l-3.63608,0l0,-2.2381zm0,3.63938l3.63608,0l0,2.23919l-3.63608,0l0,-2.23919zm0,3.63717l3.63608,0l0,2.2381l-3.63608,0l0,-2.2381zm0,3.63828l3.63608,0l0,2.2359l-3.63608,0l0,-2.2359zm0,3.63388l3.63608,0l0,2.24029l-3.63608,0l0,-2.24029zm0,3.63828l3.63608,0l0,2.24139l-3.63608,0l0,-2.24139zm-18.77452,24.47298l27.76972,0l0,1.21898l-27.76972,0l0,-1.21898zm0,2.10082l27.76972,0l0,1.22228l-27.76972,0l0,-1.22228zm0,2.10192l27.76972,0l0,1.22118l-27.76972,0l0,-1.22118zm0,2.09972l27.76972,0l0,1.22118l-27.76972,0l0,-1.22118zm0,2.10302l27.76972,0l0,1.22008l-27.76972,0l0,-1.22008zm0,2.09753l27.76972,0l0,1.22118l-27.76972,0l0,-1.22118zm0,2.10192l27.76972,0l0,1.22118l-27.76972,0l0,-1.22118zm0,2.09533l27.76972,0l0,1.22118l-27.76972,0l0,-1.22118zm0,2.10521l27.76972,0l0,1.22118l-27.76972,0l0,-1.22118zm0,2.10192l27.76972,0l0,1.22118l-27.76972,0l0,-1.22118zm0,5.66992l27.76972,0l0,1.22227l-27.76972,0l0,-1.22227zm0,2.10192l27.76972,0l0,1.22117l-27.76972,0l0,-1.22117zm0,2.10411l27.76972,0l0,1.21569l-27.76972,0l0,-1.21569zm0,2.09863l27.76972,0l0,1.22008l-27.76972,0l0,-1.22008zm0,2.09972l27.76972,0l0,1.22118l-27.76972,0l0,-1.22118zm0,2.09972l27.76972,0l0,1.22118l-27.76972,0l0,-1.22118zm0,2.10302l27.76972,0l0,1.21679l-27.76972,0l0,-1.21679zm0,2.09423l27.76972,0l0,1.22118l-27.76972,0l0,-1.22118zm0,2.10412l27.76972,0l0,1.22118l-27.76972,0l0,-1.22118zm0,2.10412l27.76972,0l0,1.22008l-27.76972,0l0,-1.22008zm-91.93099,-43.08387l1.05755,0l0.07138,0.52603l0,37.61602l-1.12893,0l0,-38.14205zm-0.67758,0.52603l0,37.61602l-1.12673,0l0,-38.14205l1.05865,0l0.06808,0.52603zm-1.9328,-26.97025l1.14541,0l0,1.6956l-1.14541,0l0,-1.6956zm0,3.33079l1.14541,0l0,1.69669l-1.14541,0l0,-1.69669zm0,3.33518l1.14541,0l0,1.69229l-1.14541,0l0,-1.69229zm0,3.33298l1.14541,0l0,1.68571l-1.14541,0l0,-1.68571zm0,3.32749l1.14541,0l0,1.69669l-1.14541,0l0,-1.69669zm-1.00264,13.11778l1.05865,0l0.07028,0.52603l0,37.61602l-1.12893,0l0,-38.14205zm-1.80321,0l1.05865,0l0.07028,0.52603l0,28.05525l-1.12893,0l0,-28.58128zm-1.80761,0l1.05865,0l0.07028,0.52603l0,28.05525l-1.12893,0l0,-28.58128zm-8.18804,-43.49788l1.28158,0l0,1.1454l-1.28158,0l0,-1.1454zm0,2.45004l1.28158,0l0,1.14541l-1.28158,0l0,-1.14541zm0,2.44895l1.28158,0l0,1.14321l-1.28158,0l0,-1.14321zm-3.43072,-4.89899l1.28158,0l0,1.1454l-1.28158,0l0,-1.1454zm0,2.45004l1.28158,0l0,1.14541l-1.28158,0l0,-1.14541zm0,2.44895l1.28158,0l0,1.1432l-1.28158,0l0,-1.1432zm-3.43182,-4.89899l1.27719,0l0,1.1454l-1.27719,0l0,-1.1454zm0,2.45004l1.27719,0l0,1.14541l-1.27719,0l0,-1.14541zm0,2.44895l1.27719,0l0,1.1432l-1.27719,0l0,-1.1432zm-3.43401,-4.89899l1.28048,0l0,1.1454l-1.28048,0l0,-1.1454zm0,2.45004l1.28048,0l0,1.1454l-1.28048,0l0,-1.1454zm0,2.44895l1.28048,0l0,1.1432l-1.28048,0l0,-1.1432zm-3.43292,-4.89899l1.28158,0l0,1.1454l-1.28158,0l0,-1.1454zm0,2.45004l1.28158,0l0,1.1454l-1.28158,0l0,-1.1454zm0,2.44894l1.28158,0l0,1.14321l-1.28158,0l0,-1.14321zm-3.43292,-4.89898l1.28268,0l0,1.1454l-1.28268,0l0,-1.1454zm0,2.45004l1.28268,0l0,1.1454l-1.28268,0l0,-1.1454zm0,2.44894l1.28268,0l0,1.14321l-1.28268,0l0,-1.14321zm-3.43291,-4.89899l1.28158,0l0,1.14541l-1.28158,0l0,-1.14541zm0,2.45005l1.28158,0l0,1.1454l-1.28158,0l0,-1.1454zm0,2.44894l1.28158,0l0,1.14321l-1.28158,0l0,-1.14321zm-3.43511,-4.89899l1.28267,0l0,1.14541l-1.28267,0l0,-1.14541zm0,2.45005l1.28267,0l0,1.1454l-1.28267,0l0,-1.1454zm0,2.44894l1.28267,0l0,1.14321l-1.28267,0l0,-1.14321zm0,2.45004l1.28267,0l0,1.14321l-1.28267,0l0,-1.14321zm0,2.44675l1.28267,0l0,1.14321l-1.28267,0l0,-1.14321zm-3.42963,-9.79578l1.27939,0l0,1.14541l-1.27939,0l0,-1.14541zm0,2.45005l1.27939,0l0,1.1454l-1.27939,0l0,-1.1454zm0,2.44894l1.27939,0l0,1.14321l-1.27939,0l0,-1.14321zm0,2.45004l1.27939,0l0,1.14321l-1.27939,0l0,-1.14321zm0,2.44675l1.27939,0l0,1.14321l-1.27939,0l0,-1.14321zm0,2.44785l1.27939,0l0,1.1454l-1.27939,0l0,-1.1454zm0,2.45004l1.27939,0l0,1.14541l-1.27939,0l0,-1.14541zm0,2.44895l1.27939,0l0,1.13991l-1.27939,0l0,-1.13991zm-8.16388,-64.52697l1.23765,0l0.10323,0l1.23546,0l0,74.01855l-1.23546,0l-0.10323,0l-1.23765,0l0,-74.01855zm-2.58292,0l1.33868,0l0,70.10683l-1.33868,0l0,-70.10683zm-2.4764,0l1.34088,0l0,68.77473l-1.34088,0l0,-68.77473zm-1.48474,0l1.33978,0l0,67.93682l-1.33978,0l0,-67.93682zm-12.21728,86.8552l2.23151,0l0,2.37427l-2.23151,0l0,-2.37427zm0,5.09117l2.23151,0l0,2.37427l-2.23151,0l0,-2.37427zm0,5.09337l2.23151,0l0,2.37427l-2.23151,0l0,-2.37427zm0,5.84013l2.23151,0l0,2.37866l-2.23151,0l0,-2.37866zm0,5.09336l2.23151,0l0,2.37867l-2.23151,0l0,-2.37867zm0,5.09117l2.23151,0l0,2.37867l-2.23151,0l0,-2.37867zm0,5.84233l2.23151,0l0,2.37866l-2.23151,0l0,-2.37866zm0,5.09117l2.23151,0l0,2.37866l-2.23151,0l0,-2.37866zm0,5.09337l2.23151,0l0,2.37537l-2.23151,0l0,-2.37537zm0,5.83903l2.23151,0l0,2.37647l-2.23151,0l0,-2.37647zm0,5.09337l2.23151,0l0,2.37537l-2.23151,0l0,-2.37537zm0,5.09556l2.23151,0l0,2.37427l-2.23151,0l0,-2.37427zm0,5.83684l2.23151,0l0,2.37976l-2.23151,0l0,-2.37976zm0,5.09556l2.23151,0l0,2.37976l-2.23151,0l0,-2.37976zm0,5.09447l2.23151,0l0,2.37426l-2.23151,0l0,-2.37426zm0,5.83683l2.23151,0l0,2.37647l-2.23151,0l0,-2.37647zm-5.9785,-80.12773l2.23041,0l0,2.37427l-2.23041,0l0,-2.37427zm0,5.09117l2.23041,0l0,2.37427l-2.23041,0l0,-2.37427zm0,5.09337l2.23041,0l0,2.37427l-2.23041,0l0,-2.37427zm0,5.84013l2.23041,0l0,2.37866l-2.23041,0l0,-2.37866zm0,5.09336l2.23041,0l0,2.37867l-2.23041,0l0,-2.37867zm0,5.09118l2.23041,0l0,2.37866l-2.23041,0l0,-2.37866zm0,5.84232l2.23041,0l0,2.37866l-2.23041,0l0,-2.37866zm0,5.09117l2.23041,0l0,2.37867l-2.23041,0l0,-2.37867zm0,5.09337l2.23041,0l0,2.37537l-2.23041,0l0,-2.37537zm0,5.83903l2.23041,0l0,2.37647l-2.23041,0l0,-2.37647zm0,5.09337l2.23041,0l0,2.37537l-2.23041,0l0,-2.37537zm0,5.09556l2.23041,0l0,2.37427l-2.23041,0l0,-2.37427zm0,5.83684l2.23041,0l0,2.37976l-2.23041,0l0,-2.37976zm0,5.09556l2.23041,0l0,2.37976l-2.23041,0l0,-2.37976zm0,5.09447l2.23041,0l0,2.37427l-2.23041,0l0,-2.37427zm0,5.83683l2.23041,0l0,2.37647l-2.23041,0l0,-2.37647zm-5.9796,-80.12773l2.23371,0l0,2.37427l-2.23371,0l0,-2.37427zm0,5.09117l2.23371,0l0,2.37427l-2.23371,0l0,-2.37427zm0,5.09337l2.23371,0l0,2.37427l-2.23371,0l0,-2.37427zm0,5.84013l2.23371,0l0,2.37866l-2.23371,0l0,-2.37866zm0,5.09337l2.23371,0l0,2.37866l-2.23371,0l0,-2.37866zm0,5.09117l2.23371,0l0,2.37866l-2.23371,0l0,-2.37866zm0,5.84232l2.23371,0l0,2.37867l-2.23371,0l0,-2.37867zm0,5.09117l2.23371,0l0,2.37867l-2.23371,0l0,-2.37867zm0,5.09337l2.23371,0l0,2.37537l-2.23371,0l0,-2.37537zm0,5.83903l2.23371,0l0,2.37647l-2.23371,0l0,-2.37647zm0,5.09337l2.23371,0l0,2.37537l-2.23371,0l0,-2.37537zm0,5.09556l2.23371,0l0,2.37427l-2.23371,0l0,-2.37427zm0,5.83684l2.23371,0l0,2.37976l-2.23371,0l0,-2.37976zm0,5.09556l2.23371,0l0,2.37976l-2.23371,0l0,-2.37976zm0,5.09447l2.23371,0l0,2.37427l-2.23371,0l0,-2.37427zm0,5.83683l2.23371,0l0,2.37647l-2.23371,0l0,-2.37647zm-5.9796,-80.12773l2.23371,0l0,2.37427l-2.23371,0l0,-2.37427zm0,5.09117l2.23371,0l0,2.37427l-2.23371,0l0,-2.37427zm0,5.09337l2.23371,0l0,2.37427l-2.23371,0l0,-2.37427zm0,5.84013l2.23371,0l0,2.37866l-2.23371,0l0,-2.37866zm0,5.09337l2.23371,0l0,2.37866l-2.23371,0l0,-2.37866zm0,5.09117l2.23371,0l0,2.37866l-2.23371,0l0,-2.37866zm0,5.84232l2.23371,0l0,2.37867l-2.23371,0l0,-2.37867zm0,5.09118l2.23371,0l0,2.37866l-2.23371,0l0,-2.37866zm0,5.09336l2.23371,0l0,2.37537l-2.23371,0l0,-2.37537zm0,5.83903l2.23371,0l0,2.37647l-2.23371,0l0,-2.37647zm0,5.09337l2.23371,0l0,2.37537l-2.23371,0l0,-2.37537zm0,5.09556l2.23371,0l0,2.37427l-2.23371,0l0,-2.37427zm0,5.83684l2.23371,0l0,2.37976l-2.23371,0l0,-2.37976zm0,5.09556l2.23371,0l0,2.37976l-2.23371,0l0,-2.37976zm0,5.09447l2.23371,0l0,2.37427l-2.23371,0l0,-2.37427zm0,5.83683l2.23371,0l0,2.37647l-2.23371,0l0,-2.37647zm-17.37543,-82.22526l8.456,0l0,1.91523l-8.456,0l0,-1.91523zm0,4.64861l8.456,0l0,1.91303l-8.456,0l0,-1.91303zm0,5.14388l8.456,0l0,1.89327l-8.456,0l0,-1.89327zm0,5.10105l8.456,0l0,1.91523l-8.456,0l0,-1.91523zm8.74043,6.51222l0,1.05975l-0.52822,0.09224l-27.2404,0l0,-1.05645l0.52822,-0.09444l27.2404,0l0,-0.0011zm-19.97812,-33.75701l0,-1.25851l2.6565,0l0,1.25851l-2.6565,0zm2.6565,1.60774l0,1.25962l-2.6565,0l0,-1.25962l2.6565,0zm-2.6565,-4.47179l0,-1.25742l2.6565,0l0,1.25742l-2.6565,0zm0,-8.58339l0,-1.26401l2.6565,0l0,1.26401l-2.6565,0zm0,-2.86626l0,-1.25851l2.6565,0l0,1.25851l-2.6565,0zm0,-2.86405l0,-1.25632l2.6565,0l0,1.25632l-2.6565,0zm0,-2.85967l0,-1.25851l2.6565,0l0,1.25851l-2.6565,0zm0,-2.86406l0,-1.25522l2.6565,0l0,1.25522l-2.6565,0zm0,-14.26648l0,-1.25632l2.6565,0l0,1.25632l-2.6565,0zm0,-5.72152l0,-1.26621l2.6565,0l0,1.26621l-2.6565,0zm0,-2.86626l0,-1.25961l2.6565,0l0,1.25961l-2.6565,0zm0,-2.86405l0,-1.25632l2.6565,0l0,1.25632l-2.6565,0zm0,-5.77644l0,-1.25412l2.6565,0l0,1.25412l-2.6565,0zm0,-2.85967l0,-1.25412l2.6565,0l0,1.25412l-2.6565,0zm0.34483,-2.13376l0,-7.14038l1.96794,0l0,7.14038l-1.96794,0zm-0.45245,-32.31949l0,-5.88076l2.80365,0l0,5.88076l-2.80365,0zm-1.59456,-12.07341l5.62488,0l0,2.37866l-5.62488,-0.11531l0,-2.26335zm-1.48255,13.60867l2.80256,0l0,13.01674l-2.80256,0l0,-13.01674zm-0.59411,31.66277l2.66199,0l0,1.25413l-2.66199,0l0,-1.25413zm0,2.86077l2.66199,0l0,1.25412l-2.66199,0l0,-1.25412zm0,2.86076l2.66199,0l0,1.25632l-2.66199,0l0,-1.25632zm0,2.86296l2.66199,0l0,1.26181l-2.66199,0l0,-1.26181zm0,20.03742l2.66199,0l0,1.25962l-2.66199,0l0,-1.25962zm0,2.86626l2.66199,0l0,1.25632l-2.66199,0l0,-1.25632zm0,2.86625l2.66199,0l0,1.25522l-2.66199,0l0,-1.25522zm0,2.85967l2.66199,0l0,1.25851l-2.66199,0l0,-1.25851zm0,2.86296l2.66199,0l0,1.25632l-2.66199,0l0,-1.25632zm0,2.86076l2.66199,0l0,1.25851l-2.66199,0l0,-1.25851zm0,2.86296l2.66199,0l0,1.26401l-2.66199,0l0,-1.26401zm0,2.86515l2.66199,0l0,1.25962l-2.66199,0l0,-1.25962zm0,11.45294l2.66199,0l0,1.25962l-2.66199,0l0,-1.25962zm0,2.85967l2.66199,0l0,1.25851l-2.66199,0l0,-1.25851zm-12.17555,-120.67041l4.5333,0l0,0.07248l-4.5333,0l0,-0.07248zm-1.36504,1.39359l6.91965,0l0,0.06809l-6.91965,0l0,-0.06809zm-1.31562,1.38811l9.52563,0l0,0.06808l-9.52563,0l0,-0.06808zm-1.2651,1.3892l11.98116,0l0,0.07248l-11.98116,0l0,-0.07248zm-1.34967,1.39029l14.60143,0l0,0.07248l-14.60143,0l0,-0.07248zm-1.39139,1.3914l17.18215,0l0,0.06918l-17.18215,0l0,-0.06918zm-0.81156,7.90581c0,0 1.81529,-3.41425 8.67673,-4.105l0,-0.07029c0.15265,0.00989 0.29542,0.02197 0.44587,0.03075c0.14825,-0.00988 0.29431,-0.02086 0.44696,-0.03075l0,0.07029c6.85595,0.68965 8.67563,4.105 8.67563,4.105l0,1.68241l-5.91261,-0.07028l0,-1.633l-1.29475,0l0,-1.98002l-1.46827,0l-0.89282,0l-1.46608,0l0,1.98002l-1.29366,0l0,1.633l-5.917,0.07028l0,-1.68241zm-0.15814,3.19571l5.7402,0l0,5.88406l-5.7402,0l0,-5.88406zm-6.97784,-5.63367l5.62708,0l0,2.37866l-5.62708,-0.11531l0,-2.26335zm-0.99715,28.57688l1.96574,0l0,7.14587l-1.96574,0l0,-7.14587zm0,8.67564l1.96574,0l0,7.14038l-1.96574,0l0,-7.14038zm-29.36978,58.38593l1.33649,0l0,42.02741l-1.33649,0l0,-42.02741zm-3.46256,-3.4428l1.33648,0l-0.07797,50.76455l-1.33648,-0.01867l0.07797,-50.74588zm-3.47026,-3.24074l1.33649,0.01099l-0.07468,53.9954l-1.33868,-0.01867l0.07687,-53.98772zm-3.47025,-2.76851l1.33978,0l-0.07467,56.7738l-1.34088,-0.01867l0.07577,-56.75513zm-3.53944,77.03415l0.07797,-80.15299l1.33429,0l0,0.52603l-0.07467,80.15848l-1.33759,0l0,-0.53152zm-3.47025,0l0.07797,-83.16201l1.33758,0l0,0.53262l-0.07797,83.16201l-1.33758,0l0,-0.53262zm-3.46257,0l0.07467,-85.69991l1.33649,0l0,0.52603l-0.07467,85.7054l-1.33649,0l0,-0.53152zm-3.47026,0l0.07688,-88.01707l1.33758,0l0,0.53152l-0.07687,88.01817l-1.33759,0l0,-0.53262zm-3.46586,0l0.07358,-91.1359l1.34088,0l0,0.53042l-0.07468,91.137l-1.33978,0l0,-0.53152zm-3.46696,0l0.07468,-93.90881l1.33868,0l0,0.53042l-0.07577,93.90991l-1.33759,0l0,-0.53152zm-3.46806,7.39955l0.07578,-103.73644l1.33868,0l0,0.53262l-0.07797,103.73973l-1.33648,-0.00878l0,-0.52713l-0.00001,0zm-3.46696,-3.58446l0.07468,-102.46256l1.34088,0l0,0.52823l-0.07468,102.46584l-1.34088,0l0,-0.53152l0,0.00001zm-3.46696,-3.81509l0.07688,-101.76301l1.33648,0l0,0.52603l-0.07577,101.7696l-1.33759,0l0,-0.53262zm-27.6599,-223.37236l7.26777,0.13618l-4.03692,36.07087c-0.80826,8.07713 -3.23085,11.84389 -3.23085,11.84389l0,-48.05094zm-4.46191,-0.65781l1.21129,0l0,3.73382l-1.30464,0l0.09335,-3.73382zm0,4.94511l1.21129,0l0,3.73162l-1.30464,0l0.09335,-3.73162zm0,4.94402l1.21129,0l0,3.72942l-1.30464,0l0.09335,-3.72942zm0,4.94181l1.21129,0l0,3.73053l-1.30464,0l0.09335,-3.73053zm0,4.94512l1.21129,0l0,3.73052l-1.30464,0l0.09335,-3.73052zm0,4.94181l1.21129,0l0,3.73272l-1.30464,0l0.09335,-3.73272zm0,4.94402l1.21129,0l0,3.72942l-1.30464,0l0.09335,-3.72942zm0,4.94072l1.21129,0l0,3.73272l-1.30464,0l0.09335,-3.73272zm-6.7066,113.10064l-0.23391,0l0,-1.68242l-1.68022,0l0,1.81969l-2.02395,0c1.04437,-13.39782 3.93808,-54.03933 3.93808,-54.03933l0,53.90206zm-4.98355,-122.68338c0,0 -2.42478,-16.82744 -3.09577,-20.05609c0,0 -0.53811,-3.501 -0.26905,-4.7101l6.99871,0.40303l0,60.83927c-0.0011,0 -2.9596,-30.95774 -3.63389,-36.47611zm-3.0145,153.30288l0.85109,0l0,7.39845l-0.85109,0l0,-7.39845zm-5.10435,0l0.83571,0l0,7.39845l-0.83571,0l0,-7.39845zm-5.14389,0l0.85659,0l0,7.39845l-0.85659,0l0,-7.39845zm-4.6475,0l0.85548,0l0,7.39845l-0.85548,0l0,-7.39845zm-24.36316,-44.78715l5.14059,0l0,2.7191l-5.14059,0l0,-2.7191zm0,14.17863l5.14059,0l0,2.718l-5.14059,0l0,-2.718zm0,7.08547l5.14059,0l0,2.71909l-5.14059,0l0,-2.71909zm0,14.18082l5.14059,0l0,2.7158l-5.14059,0l0,-2.7158zm0,7.08986l5.14059,0l0,2.7191l-5.14059,0l0,-2.7191zm-23.4989,-42.53478l6.75712,0l0,2.7191l-6.75712,0l0,-2.7191zm0,28.19911l6.75712,0l0,2.71691l-6.75712,0l0,-2.71691zm0,7.04594l6.75712,0l0,2.7191l-6.75712,0l0,-2.7191zm0,10.57329l6.75712,0l0,2.718l-6.75712,0l0,-2.718zm-6.60666,-45.81834l5.1373,0l0,2.7191l-5.1373,0l0,-2.7191zm0,3.52297l5.1373,0l0,2.7191l-5.1373,0l0,-2.7191zm0,7.05033l5.1373,0l0,2.718l-5.1373,0l0,-2.718zm0,7.05032l5.1373,0l0,2.718l-5.1373,0l0,-2.718zm0,7.04923l5.1373,0l0,2.71581l-5.1373,0l0,-2.71581zm0,14.09736l5.1373,0l0,2.718l-5.1373,0l0,-2.718zm0,10.57549l5.1373,0l0,2.71581l-5.1373,0l0,-2.71581z" id="svg_9" stroke="null"/>
   </g>
   <g id="svg_10" stroke="null">
    <polygon fill="#9F9F9F" points="950.8943481445312,308.7186279296875 953.31689453125,308.7186279296875 950.8943481445312,306.4014892578125 " id="svg_11" stroke="null"/>
    <path fill="#9F9F9F" d="m555.65431,238.94789l-1.24753,0l0,1.17176l1.24753,0l0,1.31562l-1.24753,0l0,1.14211l2.49177,0l0,1.45289l10.00224,0l0,2.65541l2.93764,0l0,24.76509l10.20979,0l0,-2.66199l-0.83791,0l0,-2.37207l2.09972,0l0,-6.1608l1.53856,0l0,-5.59304l2.79926,0l0,-1.82079l3.91612,0l0,-20.14724l9.65741,0l0,-2.93654l5.59413,0l0,1.39799l1.67693,0l0,-1.81969l6.43425,0l0,4.62005l3.78213,0l0.906,0.9082l11.40462,0l0,-6.92404l4.19725,-0.14496l3.21658,0l0,-24.34559l37.91911,-0.55238l0,27.56106l29.66189,0l0,2.51594l2.37976,0l0,1.82078l3.35385,0l0,35.95667l2.51813,0l0,-20.98626l-1.12015,-1.82188l1.12015,-0.41401l0,-4.75952l-1.25632,-2.38086l5.17902,0l0,-1.11685l2.93654,0l0,-3.63828l2.2359,0l0,3.63828l6.71758,0l0,-7.13599l13.29349,0l0,7.27326l14.12811,0l-1.53746,3.22316l0,4.05339l6.01474,0l-1.95805,4.19835l0,20.56675l14.5509,0l0,-7.13379l8.3945,0l0,-1.40018l4.05669,0l0,0.83571l2.79816,0l0,7.55769l18.04643,0l0,9.37188l9.75075,0l0,-17.11626l24.15561,0l0,15.71828l2.89151,0l0,-6.57372l-1.53745,-2.37646c0,0 34.76623,0.48539 34.27864,0c-0.48869,-0.49199 0,-9.27195 0,-9.27195l-1.67692,0l0,-2.93654l1.81749,0l0,-2.94313l-1.25742,0l0,-3.91721l5.53374,0c-73.05544,-52.26467 -99.45134,-72.41191 -114.17027,-82.35594c-26.21579,-17.71477 -33.30456,-26.80882 -56.86605,-19.49602c-19.60144,6.08502 -116.82128,67.28559 -153.12936,88.6024l0,0.93126l-0.0022,0z" id="svg_12" stroke="null"/>
   </g>
  </g>
 </g>
</svg>